<svg width="36" height="36" viewBox="0 0 36 36" fill="none" xmlns="http://www.w3.org/2000/svg">
<path d="M0 18C0 8.05888 8.05888 0 18 0C27.9411 0 36 8.05888 36 18C36 27.9411 27.9411 36 18 36C8.05888 36 0 27.9411 0 18Z" fill="#02020F" fill-opacity="0.15"/>
<path d="M23.6284 22.5938C22.7955 21.1539 21.512 20.1214 20.0141 19.6319C20.7551 19.1908 21.3307 18.5187 21.6527 17.7188C21.9747 16.9189 22.0252 16.0354 21.7964 15.204C21.5677 14.3727 21.0724 13.6393 20.3865 13.1167C19.7007 12.5941 18.8623 12.311 18 12.311C17.1377 12.311 16.2993 12.5941 15.6134 13.1167C14.9276 13.6393 14.4323 14.3727 14.2036 15.204C13.9748 16.0354 14.0253 16.9189 14.3473 17.7188C14.6693 18.5187 15.2449 19.1908 15.9859 19.6319C14.488 20.1208 13.2044 21.1533 12.3716 22.5938C12.341 22.6436 12.3208 22.699 12.312 22.7568C12.3032 22.8145 12.3061 22.8734 12.3204 22.9301C12.3348 22.9867 12.3604 23.0399 12.3956 23.0865C12.4309 23.1331 12.4751 23.1721 12.5257 23.2013C12.5763 23.2306 12.6322 23.2494 12.6902 23.2566C12.7481 23.2639 12.807 23.2594 12.8632 23.2436C12.9194 23.2277 12.9719 23.2008 13.0176 23.1643C13.0632 23.1279 13.1011 23.0826 13.129 23.0313C14.1593 21.2506 15.9804 20.1875 18 20.1875C20.0196 20.1875 21.8407 21.2506 22.871 23.0313C22.8989 23.0826 22.9368 23.1279 22.9824 23.1643C23.0281 23.2008 23.0805 23.2277 23.1368 23.2436C23.193 23.2594 23.2518 23.2639 23.3098 23.2566C23.3678 23.2494 23.4237 23.2306 23.4743 23.2013C23.5249 23.1721 23.5691 23.1331 23.6044 23.0865C23.6396 23.0399 23.6652 22.9867 23.6796 22.9301C23.6939 22.8734 23.6968 22.8145 23.688 22.7568C23.6792 22.699 23.659 22.6436 23.6284 22.5938ZM14.9375 16.25C14.9375 15.6443 15.1171 15.0522 15.4536 14.5486C15.7901 14.045 16.2684 13.6524 16.828 13.4206C17.3876 13.1888 18.0034 13.1282 18.5975 13.2464C19.1915 13.3645 19.7372 13.6562 20.1655 14.0845C20.5938 14.5128 20.8855 15.0585 21.0036 15.6526C21.1218 16.2466 21.0612 16.8624 20.8294 17.422C20.5976 17.9816 20.2051 18.4599 19.7014 18.7964C19.1978 19.1329 18.6057 19.3125 18 19.3125C17.188 19.3117 16.4096 18.9887 15.8354 18.4146C15.2613 17.8404 14.9384 17.062 14.9375 16.25Z" fill="white"/>
</svg>
