<svg width="24" height="24" viewBox="0 0 24 24" fill="none" xmlns="http://www.w3.org/2000/svg">
<path d="M4 8.4V7.5C4 6.0111 5.17916 4.8 6.6288 4.8H7.50507V3H9.25761V4.8H11.5943V3H13.3469V4.8H15.6836V3H17.4361V4.8H18.3124C19.762 4.8 20.9412 6.0111 20.9412 7.5V8.4H12.4706H4ZM20.9412 10.2V18.3C20.9412 19.7889 19.762 21 18.3124 21H6.6288C5.17916 21 4 19.7889 4 18.3V10.2H20.9412ZM9.25761 16.2H7.50507V18H9.25761V16.2ZM9.25761 12.6H7.50507V14.4H9.25761V12.6ZM13.3469 16.2H11.5943V18H13.3469V16.2ZM13.3469 12.6H11.5943V14.4H13.3469V12.6ZM17.4361 16.2H15.6836V18H17.4361V16.2ZM17.4361 12.6H15.6836V14.4H17.4361V12.6Z" fill="#F6B500"/>
<path d="M4 8.4V7.5C4 6.0111 5.17916 4.8 6.6288 4.8H7.50507V3H9.25761V4.8H11.5943V3H13.3469V4.8H15.6836V3H17.4361V4.8H18.3124C19.762 4.8 20.9412 6.0111 20.9412 7.5V8.4H12.4706H4Z" fill="#0038E0"/>
</svg>
