<svg width="24" height="24" viewBox="0 0 24 24" fill="none" xmlns="http://www.w3.org/2000/svg">
<path d="M24 20.2634C24 20.7395 23.6139 21.1256 23.1376 21.1256H0.862311C0.386062 21.1256 0 20.7395 0 20.2634V3.73641C0 3.26021 0.386062 2.87415 0.862311 2.87415H23.1377C23.6139 2.87415 24 3.26021 24 3.73641L24 20.2634Z" fill="#149334"/>
<path d="M6.65975 8.69179C6.65975 6.60511 7.14139 4.63116 7.99869 2.87415H0.862311C0.386062 2.87415 0 3.26016 0 3.73636V20.2633C0 20.7395 0.386062 21.1256 0.862311 21.1256H15.2597C10.2346 19.2313 6.65975 14.3792 6.65975 8.69179Z" fill="#0D7C24"/>
<path d="M23.1376 2.87415H12V21.1256H23.1376C23.6138 21.1256 23.9999 20.7395 23.9999 20.2633V3.73636C23.9999 3.26016 23.6139 2.87415 23.1376 2.87415Z" fill="#3BBC56"/>
<path d="M12 21.1256H15.2596C14.0847 20.6827 12.9892 20.078 12 19.3389V21.1256Z" fill="#29A53D"/>
<path d="M23.9999 6.39868H20.0742C19.7818 6.39868 19.5449 6.63563 19.5449 6.9279V17.0717C19.5449 17.3638 19.7818 17.6009 20.0742 17.6009H23.9999V6.39868Z" fill="#5CCC2E"/>
<path d="M0 6.39868H3.92577C4.21804 6.39868 4.45509 6.63563 4.45509 6.9279V17.0717C4.45509 17.3638 4.21804 17.6009 3.92577 17.6009H0V6.39868Z" fill="#5CCC2E"/>
<path d="M15.988 11.9999C15.988 14.2022 14.2025 15.9879 12 15.9879C9.79752 15.9879 8.01196 14.2022 8.01196 11.9999C8.01196 9.79731 9.79752 8.01184 12 8.01184C14.2025 8.01184 15.988 9.79731 15.988 11.9999Z" fill="#5CCC2E"/>
<path d="M19.1826 6.92792V17.0717C19.1826 17.5633 19.5826 17.9632 20.0742 17.9632H24V17.2388H20.0742C19.982 17.2388 19.9071 17.1638 19.9071 17.0717V6.92792C19.9071 6.83581 19.9821 6.7609 20.0742 6.7609H24V6.0365H20.0742C19.5826 6.03645 19.1826 6.43639 19.1826 6.92792Z" fill="#9AEFA8"/>
<path d="M3.92577 6.0365H0V6.7609H3.92577C4.01793 6.7609 4.09288 6.83586 4.09288 6.92792V17.0717C4.09288 17.1639 4.01788 17.2388 3.92577 17.2388H0V17.9632H3.92577C4.4173 17.9632 4.81733 17.5633 4.81733 17.0717V6.92797C4.81733 6.43644 4.4173 6.0365 3.92577 6.0365Z" fill="#9AEFA8"/>
<path d="M11.9996 16.3501C9.60091 16.3501 7.64941 14.3986 7.64941 11.9999C7.64941 9.60115 9.60091 7.64966 11.9996 7.64966C14.3984 7.64966 16.3499 9.60115 16.3499 11.9999C16.3499 14.3986 14.3984 16.3501 11.9996 16.3501ZM11.9996 8.37411C10.0004 8.37411 8.37382 10.0007 8.37382 11.9999C8.37382 13.9992 10.0004 15.6257 11.9996 15.6257C13.9989 15.6257 15.6255 13.9992 15.6255 11.9999C15.6255 10.0006 13.9989 8.37411 11.9996 8.37411Z" fill="#9AEFA8"/>
<path d="M12 12.7764C12.4288 12.7764 12.7765 12.4288 12.7765 11.9999C12.7765 11.5711 12.4288 11.2234 12 11.2234C11.5711 11.2234 11.2234 11.5711 11.2234 11.9999C11.2234 12.4288 11.5711 12.7764 12 12.7764Z" fill="#9AEFA8"/>
<path d="M12.375 2.87427H11.624V21.126H12.375V2.87427Z" fill="#9AEFA8"/>
</svg>
