<svg width="24" height="24" viewBox="0 0 24 24" fill="none" xmlns="http://www.w3.org/2000/svg">
<path d="M18.1917 16.5V17.3437C18.1917 18.0156 17.9248 18.66 17.4497 19.1351C16.9746 19.6102 16.3302 19.8771 15.6584 19.8771C14.9865 19.8771 14.3421 19.6102 13.867 19.1351C13.3919 18.66 13.125 18.0156 13.125 17.3437V16.5C13.125 16.3508 13.1843 16.2077 13.2897 16.1023C13.3952 15.9968 13.5383 15.9375 13.6875 15.9375H17.625C17.6992 15.9369 17.7728 15.9511 17.8416 15.9791C17.9103 16.0071 17.9728 16.0485 18.0255 16.1008C18.0782 16.153 18.12 16.2152 18.1485 16.2838C18.177 16.3523 18.1917 16.4258 18.1917 16.5ZM13.8844 14.8125H17.4387C17.5221 14.8126 17.6044 14.7942 17.6798 14.7586C17.7552 14.7229 17.8218 14.671 17.8746 14.6065C19.2 12.9893 18.8744 9.92016 17.895 7.85648C17.2685 6.53742 16.4747 5.8125 15.6562 5.8125C14.8378 5.8125 14.0468 6.53742 13.4224 7.85156C12.443 9.91734 12.1174 12.9844 13.4428 14.6016C13.4955 14.6673 13.5622 14.7204 13.6382 14.757C13.7141 14.7935 13.7973 14.8124 13.8816 14.8125H13.8844Z" fill="#0038E0"/>
<path d="M6.37506 14.25H10.3126C10.4617 14.25 10.6048 14.3093 10.7103 14.4148C10.8158 14.5202 10.8751 14.6633 10.8751 14.8125V15.6562C10.8751 16.3276 10.6084 16.9714 10.1337 17.4461C9.65897 17.9208 9.01514 18.1875 8.34381 18.1875C7.67248 18.1875 7.02865 17.9208 6.55395 17.4461C6.07925 16.9714 5.81256 16.3276 5.81256 15.6562V14.8125C5.81256 14.6633 5.87182 14.5202 5.97731 14.4148C6.0828 14.3093 6.22588 14.25 6.37506 14.25Z" fill="#F6B500"/>
<path d="M6.10787 6.16406C6.73155 4.84992 7.52537 4.125 8.34381 4.125C9.15733 4.125 9.95045 4.84992 10.5748 6.16406C11.5543 8.22773 11.8798 11.2969 10.5544 12.9141C10.5016 12.9786 10.4351 13.0305 10.3597 13.0661C10.2843 13.1018 10.2019 13.1202 10.1185 13.1201H6.5642C6.48081 13.1202 6.39844 13.1018 6.32304 13.0661C6.24764 13.0305 6.18111 12.9786 6.12826 12.9141C4.80287 11.2969 5.12842 8.22984 6.10787 6.16406Z" fill="#F6B500"/>
</svg>
