<svg width="24" height="24" viewBox="0 0 24 24" fill="none" xmlns="http://www.w3.org/2000/svg">
<path d="M11.8794 6.53137C12.6298 5.78095 12.6298 4.56427 11.8794 3.81384C11.1289 3.06342 9.91227 3.06342 9.16184 3.81384C8.41142 4.56427 8.41142 5.78095 9.16184 6.53137C9.91227 7.2818 11.1289 7.2818 11.8794 6.53137Z" fill="#F6B500"/>
<path d="M18.8778 3.11108H13.434C13.259 3.11108 13.1215 3.25171 13.1215 3.42358C13.1215 3.59546 13.259 3.73608 13.434 3.73608H15.3497V5.18296H16.4122C16.584 5.18296 16.7247 5.32046 16.7247 5.49546C16.7247 5.66733 16.584 5.80796 16.4122 5.80796H15.3497V7.00171H17.2715C17.4434 7.00171 17.584 7.14232 17.584 7.31421C17.584 7.48608 17.4434 7.62671 17.2715 7.62671H15.3497V8.82045H16.4122C16.584 8.82045 16.7247 8.96107 16.7247 9.13295C16.7247 9.30484 16.584 9.44545 16.4122 9.44545H15.3497V10.6392H17.2715C17.4434 10.6392 17.584 10.7798 17.584 10.9517C17.584 11.1236 17.4434 11.2642 17.2715 11.2642H15.3497V12.458H16.4122C16.584 12.458 16.7247 12.5986 16.7247 12.7705C16.7247 12.9423 16.584 13.083 16.4122 13.083H15.3497V14.2767H17.2715C17.4434 14.2767 17.584 14.4173 17.584 14.5892C17.584 14.7611 17.4434 14.9017 17.2715 14.9017H15.3497V16.0955H16.4122C16.584 16.0955 16.7247 16.2361 16.7247 16.408C16.7247 16.5798 16.584 16.7205 16.4122 16.7205H15.3497V17.9142H17.2715C17.4434 17.9142 17.584 18.0548 17.584 18.2267C17.584 18.4017 17.4434 18.5392 17.2715 18.5392H15.3497V19.9861H12.5434C12.6403 19.8111 12.6965 19.6111 12.6965 19.3986V14.308C12.8403 14.3767 13.0028 14.4173 13.1715 14.4173C13.7778 14.4173 14.2684 13.9236 14.2684 13.3173V9.64546C14.2684 8.55171 13.3809 7.66422 12.2871 7.66422H8.87778C7.78403 7.66422 6.8934 8.55171 6.8934 9.64546V13.3173C6.8934 13.9236 7.38715 14.4173 7.9934 14.4173C8.16217 14.4173 8.32465 14.3798 8.46528 14.308V19.3986C8.46528 19.6111 8.52153 19.8111 8.6184 19.9861H5.24028C5.06528 19.9861 4.92778 20.1267 4.92778 20.2986C4.92778 20.4705 5.06528 20.6111 5.24028 20.6111H18.8778C19.0528 20.6111 19.1903 20.4705 19.1903 20.2986V3.42358C19.1903 3.25171 19.0528 3.11108 18.8778 3.11108Z" fill="#F6B500"/>
<path fill-rule="evenodd" clip-rule="evenodd" d="M13.4341 3.11108H18.8778C19.0528 3.11108 19.1903 3.25171 19.1903 3.42358V20.2986C19.1903 20.4705 19.0528 20.6111 18.8778 20.6111H5.24029C5.06529 20.6111 4.92779 20.4705 4.92779 20.2986C4.92779 20.1267 5.06529 19.9861 5.24029 19.9861H8.61841C8.61791 19.9852 8.61741 19.9843 8.61692 19.9834H12.5449C12.5444 19.9843 12.5439 19.9852 12.5434 19.9861H15.3497V18.5392H17.2715C17.4434 18.5392 17.584 18.4017 17.584 18.2267C17.584 18.0548 17.4434 17.9142 17.2715 17.9142H15.3497V16.7205H16.4122C16.584 16.7205 16.7247 16.5798 16.7247 16.408C16.7247 16.2361 16.584 16.0955 16.4122 16.0955H15.3497V14.9017H17.2715C17.4434 14.9017 17.584 14.7611 17.584 14.5892C17.584 14.4173 17.4434 14.2767 17.2715 14.2767H15.3497V13.083H16.4122C16.584 13.083 16.7247 12.9423 16.7247 12.7705C16.7247 12.5986 16.584 12.458 16.4122 12.458H15.3497V11.2642H17.2715C17.4434 11.2642 17.584 11.1236 17.584 10.9517C17.584 10.7798 17.4434 10.6392 17.2715 10.6392H15.3497V9.44545H16.4122C16.584 9.44545 16.7247 9.30484 16.7247 9.13295C16.7247 8.96107 16.584 8.82045 16.4122 8.82045H15.3497V7.62671H17.2715C17.4434 7.62671 17.584 7.48608 17.584 7.31421C17.584 7.14232 17.4434 7.00171 17.2715 7.00171H15.3497V5.80796H16.4122C16.584 5.80796 16.7247 5.66733 16.7247 5.49546C16.7247 5.32046 16.584 5.18296 16.4122 5.18296H15.3497V3.73608H13.4341C13.2591 3.73608 13.1216 3.59546 13.1216 3.42358C13.1216 3.25171 13.2591 3.11108 13.4341 3.11108Z" fill="#0038E0"/>
</svg>
