<svg width="24" height="24" viewBox="0 0 24 24" fill="none" xmlns="http://www.w3.org/2000/svg">
<path d="M20.5937 6.95245L16.7459 5.44335C16.6303 5.39807 16.5107 5.36427 16.3884 5.34264L14.8092 5.06213H9.17325L7.59402 5.34264C7.4718 5.36427 7.35212 5.39807 7.23658 5.44335L3.38876 6.95245C3.27589 6.99666 3.21418 7.11888 3.24571 7.23602L4.22733 10.8935C4.25872 11.0101 4.38187 11.0762 4.49621 11.0378L6.73128 10.2871C6.91107 10.2267 7.09713 10.3604 7.09713 10.5501V19.7807C7.09713 19.8994 7.19317 19.9954 7.31178 19.9954H16.6708C16.7893 19.9954 16.8855 19.8994 16.8855 19.7807V10.5501C16.8855 10.3604 17.0715 10.2267 17.2513 10.2871L19.4862 11.0378C19.6007 11.0762 19.7239 11.0101 19.7551 10.8935L20.7369 7.23602C20.7683 7.11888 20.7067 6.99666 20.5937 6.95245Z" fill="#0038E0"/>
<path d="M4.00784 6.19617L3.03745 6.5767C2.90893 6.62698 2.8389 6.76598 2.8746 6.8992L3.99113 11.0588C4.02668 11.1914 4.16674 11.2666 4.29692 11.2228L5.23131 10.909L4.00784 6.19617Z" fill="#F6B500"/>
<path d="M10.3889 3.02026L11.9912 6.31911L13.5937 3.02026H10.3889Z" fill="#0038E0"/>
<path d="M12.2917 9.00949V6.16788L11.9912 5.99866L11.6907 6.16788V9.00949C11.6907 9.17537 11.8252 9.30996 11.9912 9.30996C12.1572 9.30996 12.2917 9.17537 12.2917 9.00949Z" fill="#023191" fill-opacity="0.88"/>
<path d="M20.8594 6.59128L19.8521 6.19617L18.6282 10.911L19.6 11.2374C19.7302 11.2812 19.8702 11.206 19.9058 11.0734L21.0223 6.91378C21.058 6.78056 20.988 6.64156 20.8594 6.59128Z" fill="#F6B500"/>
<path d="M10.3886 3.02026L8.78613 4.03699L10.1532 6.63554C10.2416 6.8037 10.4513 6.86553 10.6168 6.77241L11.9909 5.99859L10.3886 3.02026Z" fill="#F6B500"/>
<path d="M13.5937 3.02026L15.196 4.03699L13.829 6.63554C13.7406 6.8037 13.5308 6.86553 13.3654 6.77241L11.9912 5.99859L13.5937 3.02026Z" fill="#F6B500"/>
<path d="M6.42526 19.7394V20.7762C6.42526 20.9111 6.53448 21.0203 6.66937 21.0203H17.313C17.4479 21.0203 17.5571 20.9109 17.5571 20.7762V19.7394H6.42526Z" fill="#F6B500"/>
</svg>
