<svg width="20" height="19" viewBox="0 0 20 19" fill="none" xmlns="http://www.w3.org/2000/svg">
<path d="M12.571 6.25231L12.7455 6.60588L13.1357 6.66258L18.9764 7.51133L14.7498 11.6311L14.4674 11.9063L14.534 12.295L15.5319 18.1121L10.3079 15.3656L9.95888 15.1821L9.60987 15.3656L4.38572 18.1121L5.38326 12.2949L5.44989 11.9063L5.16757 11.6311L0.941308 7.51134L6.78195 6.66258L7.17213 6.60588L7.34664 6.25232L9.95889 0.959689L12.571 6.25231ZM19.3103 7.55985C19.3103 7.55985 19.3103 7.55984 19.3102 7.55983L19.3103 7.55985ZM19.2178 7.27604C19.2179 7.27596 19.218 7.27587 19.2181 7.27579L19.218 7.27583L19.2178 7.27604ZM4.08698 18.2692C4.08708 18.2691 4.08718 18.2691 4.08728 18.269L4.0871 18.2691L4.08698 18.2692ZM0.699779 7.27589C0.699797 7.27591 0.699815 7.27593 0.699833 7.27595L0.699779 7.27589ZM0.607647 7.55982C0.607548 7.55984 0.607449 7.55985 0.60735 7.55987L0.607466 7.55985L0.607647 7.55982ZM9.80955 0.65709L9.8096 0.65719L9.80955 0.65709Z" stroke="white" stroke-width="1.5"/>
</svg>
